<?xml version="1.0" standalone="no"?>
<!DOCTYPE svg PUBLIC "-//W3C//DTD SVG 20010904//EN"
 "http://www.w3.org/TR/2001/REC-SVG-20010904/DTD/svg10.dtd">
<svg version="1.0" xmlns="http://www.w3.org/2000/svg"
 width="512.000000pt" height="512.000000pt" viewBox="0 0 512.000000 512.000000"
 preserveAspectRatio="xMidYMid meet">

<g transform="translate(0.000000,512.000000) scale(0.100000,-0.100000)"
fill="#000000" stroke="none">
<path d="M2267 5105 c-347 -66 -637 -296 -748 -593 l-24 -64 -50 5 c-342 32
-600 -335 -453 -645 l35 -74 -32 -23 c-52 -35 -175 -163 -181 -188 -3 -12 1
-36 9 -53 15 -29 14 -32 -25 -100 -35 -60 -45 -70 -68 -70 -15 0 -37 -8 -48
-17 -32 -28 -64 -150 -78 -293 -6 -74 -8 -76 -61 -132 -63 -67 -100 -143 -116
-234 -21 -125 25 -272 113 -361 l42 -42 -1 -143 c-1 -89 4 -175 14 -230 103
-590 597 -1052 1181 -1108 119 -11 158 0 170 45 5 20 14 25 50 30 24 3 64 8
89 11 29 3 45 1 45 -5 0 -22 41 -51 71 -51 41 0 219 60 301 101 96 48 214 128
303 205 l80 70 105 -53 c60 -31 148 -65 205 -80 87 -23 120 -26 260 -27 137
-1 173 3 249 23 347 91 611 324 727 642 50 136 62 209 62 369 0 160 -12 233
-62 370 -43 116 -131 264 -183 308 -13 10 1 29 102 130 209 210 312 428 342
724 42 419 -133 820 -470 1073 -92 69 -127 79 -169 50 -19 -13 -27 -12 -97 20
-58 28 -76 40 -76 56 0 11 -13 33 -28 48 -22 23 -45 31 -117 44 -192 34 -351
30 -515 -12 -69 -17 -70 -17 -88 2 -85 97 -302 221 -452 257 -113 28 -307 35
-413 15z"/>
<path d="M865 730 c-147 -49 -255 -193 -255 -339 0 -42 4 -53 26 -70 15 -12
35 -21 45 -21 11 0 22 -13 29 -36 7 -20 25 -51 41 -69 23 -26 28 -39 23 -59
-12 -51 3 -76 62 -103 181 -83 404 6 492 196 22 47 26 70 26 141 -1 109 -27
180 -95 255 -102 111 -255 151 -394 105z"/>
</g>
</svg>
